<svg width="41" height="41" viewBox="0 0 41 41" fill="none" xmlns="http://www.w3.org/2000/svg">
<path fillRule="evenodd" clipRule="evenodd" d="M20.4998 37.5833C29.9347 37.5833 37.5832 29.9348 37.5832 20.5C37.5832 11.0651 29.9347 3.41663 20.4998 3.41663C11.065 3.41663 3.4165 11.0651 3.4165 20.5C3.4165 29.9348 11.065 37.5833 20.4998 37.5833Z" stroke="#89C232" strokeWidth="2" strokeLinecap="round" strokeLinejoin="round" />
<path d="M20.4998 19.6458C22.8585 19.6458 24.7707 17.7337 24.7707 15.375C24.7707 13.0163 22.8585 11.1041 20.4998 11.1041C18.1411 11.1041 16.229 13.0163 16.229 15.375C16.229 17.7337 18.1411 19.6458 20.4998 19.6458Z" stroke="#89C232" strokeWidth="2" strokeLinejoin="round" />
<path d="M8.56055 32.742C8.85412 28.2906 12.5577 24.7709 17.0834 24.7709H23.9168C28.4365 24.7709 32.1363 28.2812 32.4385 32.7243" stroke="#89C232" strokeWidth="2" strokeLinecap="round" strokeLinejoin="round" />
</svg>