<svg width="41" height="41" viewBox="0 0 41 41" fill="none" xmlns="http://www.w3.org/2000/svg">
<path fill-rule="evenodd" clip-rule="evenodd" d="M20.4998 37.6626C29.9347 37.6626 37.5832 30.192 37.5832 20.9766C37.5832 11.7611 29.9347 4.29053 20.4998 4.29053C11.065 4.29053 3.4165 11.7611 3.4165 20.9766C3.4165 30.192 11.065 37.6626 20.4998 37.6626Z" stroke="#86C232" stroke-width="2" stroke-linecap="round" stroke-linejoin="round"/>
<path d="M20.4998 20.1423C22.8585 20.1423 24.7707 18.2747 24.7707 15.9708C24.7707 13.667 22.8585 11.7993 20.4998 11.7993C18.1411 11.7993 16.229 13.667 16.229 15.9708C16.229 18.2747 18.1411 20.1423 20.4998 20.1423Z" stroke="#86C232" stroke-width="2" stroke-linejoin="round"/>
<path d="M8.56055 32.9339C8.85412 28.586 12.5577 25.1482 17.0834 25.1482H23.9168C28.4365 25.1482 32.1363 28.5769 32.4385 32.9166" stroke="#86C232" stroke-width="2" stroke-linecap="round" stroke-linejoin="round"/>
</svg>
