<svg width="39" height="37" viewBox="0 0 39 37" fill="none" xmlns="http://www.w3.org/2000/svg">
<path d="M27.6418 2.3125L29.5316 5.78125L33.5732 6.25994L30.6075 8.86497L31.2006 12.7188L27.6418 10.5508L24.083 12.7188L24.6761 8.86497L21.7104 6.25994L25.8624 5.78125L27.6418 2.3125Z" fill="#86C232"/>
<path d="M27.3061 15.3191L25.0071 14.7433C24.595 16.2907 23.7216 17.6842 22.4973 18.748C21.273 19.8117 19.7527 20.4979 18.1284 20.7199C16.5042 20.9419 14.8489 20.6896 13.3716 19.9951C11.8944 19.3005 10.6615 18.1947 9.82874 16.8175C8.99596 15.4403 8.60065 13.8534 8.69275 12.2573C8.78485 10.6612 9.36024 9.12752 10.3462 7.85C11.3322 6.57249 12.6845 5.60847 14.2323 5.07973C15.7802 4.55099 17.454 4.48126 19.0425 4.87935L19.6345 2.63969C17.3188 2.05261 14.8679 2.24157 12.6758 3.17621C10.4837 4.11084 8.67767 5.73683 7.54819 7.79276C6.41871 9.8487 6.03137 12.2151 6.44844 14.5115C6.86551 16.808 8.06276 18.901 9.8477 20.454V34.6875L16.9653 30.0625L24.083 34.6875V20.4749C25.6585 19.1062 26.7805 17.3114 27.3061 15.3191ZM21.7104 30.3666L16.9653 27.2829L12.2202 30.3666V22.0265C13.6925 22.7474 15.317 23.1234 16.9645 23.1246C18.612 23.1258 20.2371 22.7522 21.7104 22.0335V30.3666Z" fill="#86C232"/>
</svg>
