<svg width="393" height="35" viewBox="0 0 393 35" fill="none" xmlns="http://www.w3.org/2000/svg">
<path d="M0 17.5V35H196.5H393V17.5V-2.6077e-07H196.5H0V17.5ZM12.9557 2.62963C13.2031 2.71296 13.2958 3.19444 13.234 4.12963L13.1412 5.50926L10.0801 5.53704C8.10118 5.55556 6.89528 5.52778 6.61699 5.4537C6.09135 5.32407 5.99858 2.96296 6.49331 2.67593C6.7716 2.51852 7.17356 2.5 9.70905 2.5C11.8116 2.5 12.7083 2.53704 12.9557 2.62963ZM32.7139 2.61111C33.2705 2.77778 33.2396 5.31481 32.6521 5.4537C32.3738 5.52778 31.1679 5.55556 29.189 5.53704L26.1279 5.50926L26.0351 4.12963C25.9732 3.19444 26.066 2.71296 26.3134 2.62963C26.7772 2.46296 32.1574 2.44444 32.7139 2.61111ZM52.1939 2.57407C52.4721 2.63889 52.5649 3 52.5031 4.08333L52.4103 5.50926L49.3183 5.53704C46.69 5.55556 46.1644 5.53704 45.8552 5.39815C45.5769 5.2963 45.4532 4.86111 45.4532 4.01852C45.4532 2.48148 45.4223 2.5 49.1018 2.5C50.586 2.5 51.9774 2.53704 52.1939 2.57407ZM71.983 2.61111C72.5087 2.76852 72.5087 5.28704 71.983 5.44444C71.7356 5.51852 70.5607 5.55556 68.7982 5.55556C67.0357 5.55556 65.8607 5.51852 65.6134 5.44444C65.366 5.37037 65.2423 4.91667 65.2423 4.02778C65.2423 3.13889 65.366 2.68518 65.6134 2.61111C66.1081 2.46296 71.4883 2.46296 71.983 2.61111ZM91.6485 2.64815C92.2978 2.83333 92.3596 5.14815 91.7412 5.39815C91.432 5.53704 90.9064 5.55556 88.2781 5.53704L85.1861 5.50926L85.0933 4.08333C85.0315 3 85.1242 2.63889 85.4025 2.57407C85.619 2.53704 87.0104 2.5 88.4946 2.5C90.5353 2.5 91.2774 2.53704 91.6485 2.64815ZM111.252 2.61111C111.654 2.73148 111.809 5.12037 111.438 5.40741C111.283 5.52778 110.696 5.55556 108.253 5.55556C106.336 5.55556 105.13 5.51852 104.882 5.44444C104.357 5.28704 104.357 2.76852 104.882 2.61111C105.377 2.46296 110.757 2.46296 111.252 2.61111ZM131.103 2.67593C131.598 2.96296 131.505 5.32407 130.979 5.4537C130.701 5.52778 129.495 5.55556 127.516 5.53704L124.455 5.50926L124.362 4.12963C124.301 3.19444 124.393 2.71296 124.641 2.62963C124.888 2.53704 125.785 2.5 127.887 2.5C130.423 2.5 130.825 2.51852 131.103 2.67593ZM150.552 2.62963C150.799 2.71296 150.892 3.19444 150.83 4.12963L150.738 5.50926L147.676 5.53704C145.698 5.55556 144.492 5.52778 144.213 5.4537C143.626 5.31481 143.595 2.77778 144.152 2.61111C144.708 2.44444 150.088 2.46296 150.552 2.62963ZM170.31 2.61111C170.867 2.77778 170.836 5.31481 170.248 5.4537C169.97 5.52778 168.764 5.55556 166.785 5.53704L163.724 5.50926L163.631 4.12963C163.57 3.19444 163.662 2.71296 163.91 2.62963C164.374 2.46296 169.754 2.44444 170.31 2.61111ZM189.821 2.62963C190.069 2.71296 190.161 3.19444 190.099 4.12963L190.007 5.50926L186.915 5.53704C184.286 5.55556 183.761 5.53704 183.452 5.39815C182.957 5.2037 182.895 2.94444 183.359 2.67593C183.637 2.51852 184.039 2.5 186.575 2.5C188.677 2.5 189.574 2.53704 189.821 2.62963ZM209.579 2.61111C209.827 2.68518 209.95 3.13889 209.95 4.02778C209.95 4.91667 209.827 5.37037 209.579 5.44444C209.332 5.51852 208.126 5.55556 206.209 5.55556C203.766 5.55556 203.179 5.52778 203.024 5.40741C202.653 5.12037 202.808 2.73148 203.21 2.61111C203.704 2.46296 209.085 2.46296 209.579 2.61111ZM229.059 2.57407C229.338 2.63889 229.43 3 229.369 4.08333L229.276 5.50926L226.184 5.53704C223.555 5.55556 223.03 5.53704 222.721 5.39815C222.442 5.2963 222.319 4.86111 222.319 4.01852C222.319 2.48148 222.288 2.5 225.967 2.5C227.451 2.5 228.843 2.53704 229.059 2.57407ZM248.848 2.61111C249.096 2.68518 249.22 3.13889 249.22 4.02778C249.22 4.91667 249.096 5.37037 248.848 5.44444C248.601 5.51852 247.426 5.55556 245.664 5.55556C243.901 5.55556 242.726 5.51852 242.479 5.44444C242.231 5.37037 242.108 4.91667 242.108 4.02778C242.108 3.13889 242.231 2.68518 242.479 2.61111C242.974 2.46296 248.354 2.46296 248.848 2.61111ZM268.514 2.64815C269.163 2.83333 269.225 5.14815 268.607 5.39815C268.297 5.53704 267.772 5.55556 265.144 5.53704L262.052 5.50926L261.959 4.08333C261.897 3 261.99 2.63889 262.268 2.57407C262.484 2.53704 263.876 2.5 265.36 2.5C267.401 2.5 268.143 2.53704 268.514 2.64815ZM288.148 2.62963C288.396 2.71296 288.489 3.19444 288.427 4.12963L288.334 5.50926L285.273 5.53704C283.294 5.55556 282.088 5.52778 281.81 5.4537C281.222 5.31481 281.191 2.77778 281.748 2.61111C282.304 2.44444 287.685 2.46296 288.148 2.62963ZM307.969 2.67593C308.463 2.96296 308.37 5.32407 307.845 5.4537C307.567 5.52778 306.361 5.55556 304.382 5.53704L301.321 5.50926L301.228 4.12963C301.166 3.19444 301.259 2.71296 301.506 2.62963C301.754 2.53704 302.65 2.5 304.753 2.5C307.288 2.5 307.69 2.51852 307.969 2.67593ZM327.418 2.62963C327.665 2.71296 327.758 3.19444 327.696 4.12963L327.603 5.50926L324.542 5.53704C322.563 5.55556 321.357 5.52778 321.079 5.4537C320.553 5.32407 320.46 2.96296 320.955 2.67593C321.233 2.51852 321.635 2.5 324.171 2.5C326.273 2.5 327.17 2.53704 327.418 2.62963ZM347.176 2.61111C347.732 2.77778 347.701 5.31481 347.114 5.4537C346.836 5.52778 345.63 5.55556 343.651 5.53704L340.59 5.50926L340.497 4.12963C340.435 3.19444 340.528 2.71296 340.775 2.62963C341.239 2.46296 346.619 2.44444 347.176 2.61111ZM366.656 2.57407C366.934 2.63889 367.027 3 366.965 4.08333L366.872 5.50926L363.78 5.53704C361.152 5.55556 360.626 5.53704 360.317 5.39815C360.039 5.2963 359.915 4.86111 359.915 4.01852C359.915 2.48148 359.884 2.5 363.564 2.5C365.048 2.5 366.439 2.53704 366.656 2.57407ZM386.445 2.61111C386.97 2.76852 386.97 5.28704 386.445 5.44444C386.197 5.51852 385.023 5.55556 383.26 5.55556C381.498 5.55556 380.323 5.51852 380.075 5.44444C379.55 5.28704 379.55 2.76852 380.075 2.61111C380.57 2.46296 385.95 2.46296 386.445 2.61111ZM94.6168 17.4537V27.8704H48.236H1.85523V17.4722C1.85523 11.75 1.91707 7.0463 1.97891 7.02778C2.04076 7.00926 22.9121 7 48.3597 7.01852L94.6168 7.03704V17.4537ZM192.944 17.463V27.8704L146.501 27.8519L100.028 27.8241L99.9352 17.4352L99.8733 7.03704L146.161 7.01852C171.64 7 192.573 7 192.728 7.01852C192.851 7.03704 192.944 11.7315 192.944 17.463ZM291.117 17.4259V27.8241H244.736H198.355L198.262 17.5C198.232 11.8241 198.262 7.12963 198.324 7.08333C198.386 7.01852 214.094 7 244.767 7.00926L291.117 7.03704V17.4259ZM389.444 17.4259V27.8241H343.063H296.683L296.59 17.5C296.559 11.8241 296.59 7.12963 296.652 7.08333C296.713 7.01852 312.421 7 343.094 7.00926L389.444 7.03704V17.4259ZM12.9248 29.6481C13.1721 29.7222 13.2958 30.1852 13.2958 31.1296C13.2958 32.7407 13.4195 32.6852 9.70905 32.6852C6.21503 32.6852 6.18411 32.6759 6.18411 31.1019C6.18411 29.5185 6.12227 29.537 9.86365 29.537C11.5334 29.537 12.6774 29.5741 12.9248 29.6481ZM32.5902 29.6852C32.9922 29.7963 33.085 30.0648 33.085 31.1111C33.085 32.6944 33.1159 32.6852 29.6528 32.6852C25.8496 32.6852 25.9732 32.7407 25.9732 31.1296C25.9732 30.1852 26.0969 29.7222 26.3443 29.6481C26.9318 29.4722 32.0028 29.5 32.5902 29.6852ZM52.1939 29.6481C52.4412 29.7222 52.5649 30.1852 52.5649 31.1296C52.5649 32.7315 52.6577 32.6852 49.1018 32.6852C45.515 32.6852 45.4532 32.6667 45.4532 31.1389C45.4532 29.537 45.4532 29.537 49.1637 29.537C50.8024 29.537 51.9774 29.5833 52.1939 29.6481ZM71.7666 29.6296C72.2922 29.7222 72.3541 29.8426 72.3541 31.1111C72.3541 32.7407 72.4777 32.6852 68.7982 32.6852C65.1186 32.6852 65.2423 32.7407 65.2423 31.1111C65.2423 29.8981 65.3042 29.7222 65.7989 29.6389C66.4792 29.5093 70.9935 29.5093 71.7666 29.6296ZM91.6485 29.7407C92.0504 29.9074 92.1432 30.213 92.1432 31.1296C92.1432 32.6296 92.0195 32.6852 88.5564 32.6852C84.9078 32.6852 85.0315 32.7315 85.0315 31.1296C85.0315 30.1852 85.1552 29.7222 85.4025 29.6481C85.6499 29.5741 86.7939 29.537 88.4637 29.537C90.9064 29.537 91.2156 29.5556 91.6485 29.7407ZM111.036 29.6296C111.561 29.7222 111.623 29.8426 111.623 31.1111C111.623 32.7407 111.747 32.6852 107.944 32.6852C104.48 32.6852 104.511 32.7037 104.511 31.0648C104.511 29.8889 104.573 29.7222 105.068 29.6389C105.748 29.5093 110.263 29.5093 111.036 29.6296ZM130.918 29.6852C131.32 29.7963 131.412 30.0648 131.412 31.0833C131.412 32.6759 131.381 32.6852 127.949 32.6852C124.177 32.6852 124.301 32.7407 124.301 31.1296C124.301 30.1852 124.424 29.7222 124.672 29.6481C125.259 29.4722 130.33 29.5 130.918 29.6852ZM150.521 29.6481C150.769 29.7222 150.892 30.1852 150.892 31.1296C150.892 32.7407 151.016 32.6852 147.213 32.6852C143.75 32.6852 143.78 32.6944 143.78 31.1111C143.78 29.5093 143.719 29.537 147.46 29.537C149.13 29.537 150.274 29.5741 150.521 29.6481ZM170.187 29.6852C170.589 29.7963 170.681 30.0648 170.681 31.1111C170.681 32.6944 170.712 32.6852 167.249 32.6852C163.446 32.6852 163.57 32.7407 163.57 31.1296C163.57 30.1852 163.693 29.7222 163.941 29.6481C164.528 29.4722 169.599 29.5 170.187 29.6852ZM189.79 29.6481C190.038 29.7222 190.161 30.1852 190.161 31.1296C190.161 32.7407 190.285 32.6852 186.575 32.6852C183.08 32.6852 183.05 32.6759 183.05 31.1019C183.05 29.5185 182.988 29.537 186.729 29.537C188.399 29.537 189.543 29.5741 189.79 29.6481ZM209.363 29.6296C209.889 29.7222 209.95 29.8426 209.95 31.0648C209.95 32.7037 209.981 32.6852 206.518 32.6852C202.715 32.6852 202.839 32.7407 202.839 31.1111C202.839 29.8981 202.901 29.7222 203.395 29.6389C204.076 29.5093 208.59 29.5093 209.363 29.6296ZM229.059 29.6481C229.307 29.7222 229.43 30.1852 229.43 31.1296C229.43 32.7315 229.554 32.6852 225.905 32.6852C222.442 32.6852 222.319 32.6296 222.319 31.1296C222.319 29.5556 222.35 29.537 225.998 29.537C227.668 29.537 228.812 29.5741 229.059 29.6481ZM248.632 29.6296C249.158 29.7222 249.22 29.8426 249.22 31.1111C249.22 32.7407 249.343 32.6852 245.54 32.6852C242.077 32.6852 242.108 32.7037 242.108 31.0648C242.108 29.8889 242.17 29.7222 242.664 29.6389C243.345 29.5093 247.859 29.5093 248.632 29.6296ZM268.514 29.6852C268.916 29.7963 269.009 30.0648 269.009 31.1111C269.009 32.6667 268.978 32.6852 265.36 32.6852C261.804 32.6852 261.897 32.7315 261.897 31.1296C261.897 30.1852 262.021 29.7222 262.268 29.6481C262.855 29.4722 267.926 29.5 268.514 29.6852ZM288.118 29.6481C288.365 29.7222 288.489 30.1852 288.489 31.1296C288.489 32.7407 288.612 32.6852 284.809 32.6852C281.346 32.6852 281.377 32.6944 281.377 31.1111C281.377 29.5093 281.315 29.537 285.056 29.537C286.726 29.537 287.87 29.5741 288.118 29.6481ZM307.783 29.6852C308.185 29.7963 308.278 30.0648 308.278 31.0833C308.278 32.6759 308.247 32.6852 304.815 32.6852C301.042 32.6852 301.166 32.7407 301.166 31.1296C301.166 30.1852 301.29 29.7222 301.537 29.6481C302.125 29.4722 307.196 29.5 307.783 29.6852ZM327.387 29.6481C327.634 29.7222 327.758 30.1852 327.758 31.1296C327.758 32.7407 327.881 32.6852 324.171 32.6852C320.677 32.6852 320.646 32.6759 320.646 31.1019C320.646 29.5185 320.584 29.537 324.325 29.537C325.995 29.537 327.139 29.5741 327.387 29.6481ZM347.052 29.6852C347.454 29.7963 347.547 30.0648 347.547 31.1111C347.547 32.6944 347.578 32.6852 344.115 32.6852C340.311 32.6852 340.435 32.7407 340.435 31.1296C340.435 30.1852 340.559 29.7222 340.806 29.6481C341.394 29.4722 346.465 29.5 347.052 29.6852ZM366.656 29.6481C366.903 29.7222 367.027 30.1852 367.027 31.1296C367.027 32.7315 367.15 32.6852 363.502 32.6852C360.039 32.6852 359.915 32.6389 359.915 31.0926C359.915 29.537 359.915 29.537 363.625 29.537C365.264 29.537 366.439 29.5833 366.656 29.6481ZM386.228 29.6296C386.754 29.7222 386.816 29.8426 386.816 31.1111C386.816 32.7407 386.94 32.6852 383.26 32.6852C379.58 32.6852 379.704 32.7407 379.704 31.1111C379.704 29.8981 379.766 29.7222 380.261 29.6389C380.941 29.5093 385.455 29.5093 386.228 29.6296Z" fill="#222629"/>
</svg>
